PathFileType	4	(X/Y/Z)	Patient4_TMGait_0pt2_03_right_10.trc.trc
DataRate	CameraRate	NumFrames	NumMarkers	Units	OrigDataRate	OrigDataStartFrame	OrigNumFrames
45.751633986928	45.751633986928	4	33	mm	45.751633986928	71	       141
Frame#	Time	Sacral			L.Shoulder			Chest			R.Shoulder			Neck			R.ASIS			L.ASIS			R.Thigh.Superior			R.Thigh.Lateral			R.Thigh.Inferior			R.Patella			L.Thigh.Superior			L.Thigh.Lateral			L.Thigh.Inferior			L.Patella			L.Shank.Superior			L.Shank.Lateral			L.Shank.Inferior			R.Shank.Superior			R.Shank.Lateral			R.Shank.Inferior			R.Heel			R.Midfoot.Superior			R.Midfoot.Lateral			R.Toe			L.Heel			L.Midfoot.Lateral			L.Midfoot.Superior			L.Toe			L.Elbow			L.Wrist			R.Elbow			R.Wrist			
		X1	Y1	Z1	X2	Y2	Z2	X3	Y3	Z3	X4	Y4	Z4	X5	Y5	Z5	X6	Y6	Z6	X7	Y7	Z7	X8	Y8	Z8	X9	Y9	Z9	X10	Y10	Z10	X11	Y11	Z11	X12	Y12	Z12	X13	Y13	Z13	X14	Y14	Z14	X15	Y15	Z15	X16	Y16	Z16	X17	Y17	Z17	X18	Y18	Z18	X19	Y19	Z19	X20	Y20	Z20	X21	Y21	Z21	X22	Y22	Z22	X23	Y23	Z23	X24	Y24	Z24	X25	Y25	Z25	X26	Y26	Z26	X27	Y27	Z27	X28	Y28	Z28	X29	Y29	Z29	X30	Y30	Z30	X31	Y31	Z31	X32	Y32	Z32	X33	Y33	Z33	

71	22.870000000000	745.907266443761	998.071324992032	592.950720128587	872.537216562201	1426.104107121053	381.938419462380	1008.026780375780	1360.526237540919	518.314100865103	962.613609805288	1437.425169320560	701.556747120657	881.241299365552	1488.358437863460	538.771889310454	988.792105081279	935.496719864156	673.110466996766	934.212193681420	958.411152520858	403.856623158766	996.224148698190	723.442457837246	635.943241725320	910.564771802669	619.683260380983	706.991375445490	963.965457016397	561.935615126941	616.229735917965	949.925540251352	472.844484117804	621.364179300932	1009.914550239690	764.721119060006	423.876514080043	939.935124511699	634.017836208507	344.812699661453	1046.653846559728	577.634083366811	402.504420007696	1060.378728654185	511.885088644697	399.188541840090	1048.937058051556	440.716223361609	382.499554422704	984.866669672465	316.983582318956	316.017767912343	1066.731981373192	211.698224031594	368.296402832113	908.922554174083	388.032659148586	631.311275450898	829.856458672621	294.724194355133	701.081320730033	845.259631207069	197.487671486322	632.517587074737	685.757082888220	43.918240667237	616.797302207983	860.418995034468	96.078566368129	639.922565423053	773.933295004229	37.103667444294	685.291374678278	981.063911987881	42.493965694417	660.137845827828	966.188982331574	48.378938526718	387.957008683755	1048.799500075639	41.388135416115	317.521809448334	1130.112749087825	102.219737083770	349.568297730075	1257.996099984712	48.470661992909	337.992071911069	716.185957162610	1109.630490183786	310.829260035921	663.015033207471	859.602814118226	374.875077576037	1210.605120861053	1231.563383184059	803.330699415177	1381.834993345095	1398.735295746578	717.427661335189	
72	22.891857142857	747.196561845030	997.075665298877	588.510710711413	872.791567121668	1424.501078239221	375.915968659029	1008.403047453344	1359.799738541635	512.613976920520	962.571225403329	1436.924508667517	695.677492455844	881.254789863120	1487.468386248647	532.566524150850	990.220566500632	934.942539672886	668.956632223194	935.632243429842	957.205806979628	399.641616204598	996.576383672579	722.294922934111	632.521691682044	910.035135742141	619.225147326964	703.910017792684	962.879024542172	560.796287023554	613.470723150537	947.988391855418	471.787750553704	618.867956420448	1011.321286177147	762.709973147392	420.377961996244	940.261741508281	631.975948591072	342.607679822942	1046.521458616558	575.196942568707	400.669541996763	1059.278533791843	509.199685359107	397.889564575973	1047.299007182319	437.859337033086	381.378886078505	981.732494000024	314.588406804414	315.672857176317	1061.967523631485	208.593163061443	368.972027237654	906.487010693413	387.225801928388	629.300431464990	826.861826936792	294.770455362162	699.593568759203	841.611398754542	197.069781996924	631.650873392529	681.398560916644	43.959860456519	616.724564965710	856.019868543177	96.084836573381	639.714646675043	769.548437269412	37.147970040398	685.233570149766	976.643085623656	42.553376938398	660.150025551770	959.865296965307	44.730737945027	388.202169425148	1042.594001841032	39.662440789965	317.492838715425	1123.188171651190	100.819788537915	350.778199348167	1251.738168034852	48.607604031932	338.451937608035	721.269574764624	1105.257988773395	303.991395289108	672.530239428371	853.895851254397	365.354316939403	1210.125544674562	1230.456408900186	797.195022158333	1375.308482954655	1401.657093882028	709.053064702578	
73	22.913714285714	748.532821457066	996.305358378450	583.804018531388	873.193168093220	1423.078780403839	369.731509176006	1008.902960067806	1359.211774550216	506.745675017179	962.705270322755	1436.594747102816	689.657168656529	881.413883295832	1486.753985852629	526.174954185081	991.639343503565	934.451525912012	664.451209771042	937.096650694396	956.369181819386	395.110541761945	996.938306791210	721.211195432172	628.740227996997	909.537053746116	618.840157338322	700.488325215571	961.851862646807	559.724037630393	610.395208394903	946.191398900430	470.803752602673	616.087340154133	1012.874342050098	761.218696028655	416.600707081601	940.927293543794	630.390368515620	340.018831305190	1046.721136086569	573.260801623477	398.539225333951	1058.667681288763	507.037361086983	396.321630218621	1046.118976686799	435.461194103115	380.022560491797	979.129224686505	312.587493342556	315.088194808034	1057.718239976615	205.969662665766	369.498690320116	904.130960241969	386.500091160010	627.043630370639	823.955882523754	294.963298863821	697.921562600589	838.026030973093	196.758192273821	630.648129057775	677.073896629447	44.157086029839	616.603162879011	851.666420346435	96.140293053363	639.453411291382	765.185378654822	37.303495611280	685.118123772801	972.219334677470	42.577993290698	660.153917107917	954.122157991105	41.696283611819	388.596409948547	1036.855361121105	38.196741925667	317.514968014614	1116.766080462133	99.821427598179	351.649011730466	1245.982937588879	49.062885408312	338.629408479963	726.852698636653	1101.015804722454	296.409795246340	683.298452930664	848.165865887780	354.208179380926	1209.214007375475	1228.450930543343	791.200341980800	1369.679396475278	1402.284488939426	701.078274912352	
74	22.935571428571	749.857214252254	995.815971454337	578.793047491433	873.743550927170	1421.896722866230	363.450642310574	1009.515524392473	1358.793700207582	500.773386178531	963.003508253529	1436.478369367932	683.549194999844	881.721875325552	1486.257637069816	519.669992973970	992.955298060610	934.053912958143	659.630732303823	938.602051722459	955.945608765776	390.280426747220	997.186400106259	720.232130183644	624.646355162013	908.934363711859	618.587725133257	696.771021510907	960.774075852546	558.766166959914	607.061488315771	944.431071703249	469.941329352494	613.083800332075	1014.559168149006	760.320155913659	412.562944019295	941.966537036794	629.310901536812	337.014876804603	1047.283884735967	571.884303151490	396.081680490924	1058.557105420575	505.441559736600	394.477153962072	1045.424798321179	433.574273832450	378.427608468979	977.136822255500	311.065075066549	314.172549506236	1054.012845791190	203.905125755413	369.814694782477	901.777732542661	385.906496803318	624.591122677506	821.065859341139	295.334365700480	696.086678631329	834.476277690696	196.593581746484	629.522167354022	672.782759953788	44.553171983314	616.423748374683	847.364381119626	96.258576156624	639.135147822903	760.843525202033	37.607527641432	684.939315663484	967.787150377294	42.561210569363	660.147402327365	948.947608285458	39.397046511814	389.024499467889	1031.610492155237	37.047395914403	317.536060133604	1110.913780060255	99.219329382534	352.163411159052	1240.747211237160	49.723367957214	338.582014326536	732.824995646776	1097.037146073037	288.246453134956	695.182182898646	842.623442140261	341.689737808603	1207.994731927882	1225.771570994326	785.306050563648	1365.137490921701	1401.003147422229	693.479310975289	
